{"title":"30.Days.Of.Night2007 Dual - Audio English+Hindi [BDU]","uid":5445274,"size":844407151,"categoryP":"video","categoryS":"movies","magnet":"?xt=urn:btih:aecd3cacbb3287c6630f9af119b3d993b1184a8f&amp;dn=30.Days.Of.Night2007+Dual+-+Audio+English%2BHindi+%5BBDU%5D&amp;tr=udp%3A%2F%2Ftracker.openbittorrent.com%3A80&amp;tr=udp%3A%2F%2Fopen.demonii.com%3A1337&amp;tr=udp%3A%2F%2Ftracker.coppersurfer.tk%3A6969&amp;tr=udp%3A%2F%2Fexodus.desync.com%3A6969","seeders":0,"leechers":10,"uploader":"BDU","files":4,"time":1268997819,"description":"\n\n\n\nFIlm Details :\n\nRelease Date  \t:  \tOctober 19, 2007 (theatrical), February 26, 2008 (DVD)\nCasts \t: \tBen Foster, Josh Hartnett, Melissa George, Danny Huston, Mark Boone Junior, Mark Rendall\nMovie Still\nSynopsis \t: \tJosh Hartnett (The Black Dahlia, Pearl Harbor) crosses over to the dark side in this bone-chilling adaptation of the cult-hit graphic novel, brought to the screen in all its demonic glory. In a small Alaskan town, thirty days of night is a natural phenomenon. Very few outsiders visit, until a band o more..\nReview \t: \tVampires put the bite on members of a teensy Alaskan community in this understandably chilling adaptation of the graphic comic-book miniseries created by Steve Niles and Ben Templesmith. \n\n\n\nGeneral\nComplete name : 30.Days.Of.Night[2007] [Dual - Audio] [English+Hindi].avi\nFormat : AVI\nFormat/Info : Audio Video Interleave\nFormat profile : OpenDML\nFile size : 805 MiB\nDuration : 1h 53mn\nOverall bit rate : 995 Kbps\nWriting application : AVI-Mux GUI 1.17.8, Aug 30 2008 12:36:58\nVideo #0\nID : 0\nFormat : MPEG-4 Visual\nFormat profile : AdvancedSimple@L5\nFormat settings, BVOP : Yes\nFormat settings, QPel : No\nFormat settings, GMC : No warppoints\nFormat settings, Matrix : Default (H.263)\nCodec ID : DX50\nCodec ID/Hint : DivX 5\nDuration : 1h 53mn\nBit rate : 747 Kbps\nWidth : 672 pixels\nHeight : 268 pixels\nDisplay aspect ratio : 2.507\nFrame rate : 23.976 fps\nResolution : 24 bits\nColorimetry : 4:2:0\nScan type : Progressive\nBits/(Pixel*Frame) : 0.173\nStream size : 604 MiB (75%)\nWriting library : XviD 1.0.1 (UTC 2004-06-05)\nAudio #1\nID : 1\nFormat : MPEG Audio\nFormat version : Version 1\nFormat profile : Layer 3\nCodec ID : 55\nCodec ID/Hint : MP3\nDuration : 1h 53mn\nBit rate mode : Constant\nBit rate : 112 Kbps\nChannel(s) : 2 channels\nSampling rate : 48.0 KHz\nResolution : 16 bits\nStream size : 90.6 MiB (11%)\nAlignment : Aligned on interleaves\nInterleave, duration : 791 ms (18.96 video frames)\nInterleave, preload duration : 216 ms\nTitle : 30 Days Of Night - English\nAudio #2\nID : 2\nFormat : MPEG Audio\nFormat version : Version 1\nFormat profile : Layer 3\nCodec ID : 55\nCodec ID/Hint : MP3\nDuration : 1h 53mn\nBit rate mode : Constant\nBit rate : 128 Kbps\nChannel(s) : 2 channels\nSampling rate : 48.0 KHz\nResolution : 16 bits\nStream size : 104 MiB (13%)\nAlignment : Aligned on interleaves\nInterleave, duration : 24 ms (0.58 video frame)\nInterleave, preload duration : 192 ms\nTitle : 30 Days Of Night - Hindi\nWriting library : LAME3.98 (alpha)","torrent":{"xt":"urn:btih:aecd3cacbb3287c6630f9af119b3d993b1184a8f","amp;dn":"30.Days.Of.Night2007+Dual+-+Audio+English%2BHindi+%5BBDU%5D","amp;tr":["udp%3A%2F%2Ftracker.openbittorrent.com%3A80","udp%3A%2F%2Fopen.demonii.com%3A1337","udp%3A%2F%2Ftracker.coppersurfer.tk%3A6969","udp%3A%2F%2Fexodus.desync.com%3A6969"],"infoHash":"aecd3cacbb3287c6630f9af119b3d993b1184a8f","infoHashBuffer":{"type":"Buffer","data":[174,205,60,172,187,50,135,198,99,15,154,241,25,179,217,147,177,24,74,143]},"announce":[],"urlList":[]}}